<?xml version="1.0" encoding="utf-8"?>
<!-- Generator: Adobe Illustrator 24.0.3, SVG Export Plug-In . SVG Version: 6.00 Build 0)  -->
<svg version="1.1" id="Layer_1" xmlns="http://www.w3.org/2000/svg" xmlns:xlink="http://www.w3.org/1999/xlink" x="0px" y="0px"
	 viewBox="0 0 125.25 125.25" style="enable-background:new 0 0 125.25 125.25;" xml:space="preserve">
<path d="M121.66,22.98C108.74,35.9,95.59,49.05,82.43,62.21c13.33,13.29,26.53,26.45,39.61,39.49
	c-6.85,6.85-13.42,13.42-20.08,20.08c-12.97-13.01-26.13-26.2-39.25-39.35c-13.33,13.34-26.48,26.49-39.52,39.55
	c-6.79-6.82-13.37-13.42-19.98-20.06c12.95-12.95,26.1-26.1,39.25-39.25C29.15,49.38,15.96,36.22,2.89,23.17
	c6.83-6.83,13.4-13.4,20.04-20.05c12.97,13.01,26.13,26.2,39.25,39.35c13.34-13.35,26.48-26.5,39.52-39.56
	C108.5,9.75,115.07,16.35,121.66,22.98z"/>
</svg>
